<?xml version="1.0" encoding="UTF-8" standalone="no"?>
<!DOCTYPE svg PUBLIC "-//W3C//DTD SVG 1.1//EN"
 "http://www.w3.org/Graphics/SVG/1.1/DTD/svg11.dtd">
<!-- Generated by graphviz version 2.43.0 (0)
 -->
<!-- Title: %3 Pages: 1 -->
<svg width="283pt" height="305pt"
 viewBox="0.00 0.00 283.00 305.00" xmlns="http://www.w3.org/2000/svg" xmlns:xlink="http://www.w3.org/1999/xlink">
<g id="graph0" class="graph" transform="scale(1 1) rotate(0) translate(4 301)">
<title>%3</title>
<polygon fill="white" stroke="transparent" points="-4,4 -4,-301 279,-301 279,4 -4,4"/>
<!-- One -->
<g id="node1" class="node">
<title>One</title>
<path fill="none" stroke="black" d="M144,-210C144,-210 114,-210 114,-210 108,-210 102,-204 102,-198 102,-198 102,-186 102,-186 102,-180 108,-174 114,-174 114,-174 144,-174 144,-174 150,-174 156,-180 156,-186 156,-186 156,-198 156,-198 156,-204 150,-210 144,-210"/>
<text text-anchor="middle" x="129" y="-188.3" font-family="Times,serif" font-size="14.00">One</text>
</g>
<!-- Two -->
<g id="node2" class="node">
<title>Two</title>
<path fill="none" stroke="black" d="M107,-123C107,-123 77,-123 77,-123 71,-123 65,-117 65,-111 65,-111 65,-99 65,-99 65,-93 71,-87 77,-87 77,-87 107,-87 107,-87 113,-87 119,-93 119,-99 119,-99 119,-111 119,-111 119,-117 113,-123 107,-123"/>
<text text-anchor="middle" x="92" y="-101.3" font-family="Times,serif" font-size="14.00">Two</text>
</g>
<!-- One&#45;&gt;Two -->
<g id="edge1" class="edge">
<title>One&#45;&gt;Two</title>
<path fill="none" stroke="black" d="M121.51,-173.8C116.35,-161.93 109.38,-145.93 103.51,-132.45"/>
<polygon fill="black" stroke="black" points="99.48,-123.18 107.59,-130.55 101.47,-127.76 103.47,-132.34 103.47,-132.34 103.47,-132.34 101.47,-127.76 99.34,-134.14 99.48,-123.18 99.48,-123.18"/>
<text text-anchor="middle" x="126.5" y="-144.8" font-family="Times,serif" font-size="14.00">two</text>
</g>
<!-- Three -->
<g id="node3" class="node">
<title>Three</title>
<path fill="none" stroke="black" d="M141,-36C141,-36 107,-36 107,-36 101,-36 95,-30 95,-24 95,-24 95,-12 95,-12 95,-6 101,0 107,0 107,0 141,0 141,0 147,0 153,-6 153,-12 153,-12 153,-24 153,-24 153,-30 147,-36 141,-36"/>
<text text-anchor="middle" x="124" y="-14.3" font-family="Times,serif" font-size="14.00">Three</text>
</g>
<!-- Two&#45;&gt;Three -->
<g id="edge2" class="edge">
<title>Two&#45;&gt;Three</title>
<path fill="none" stroke="black" d="M93.85,-86.89C95.3,-77.03 97.8,-64.53 102,-54 103.22,-50.93 104.72,-47.84 106.34,-44.82"/>
<polygon fill="black" stroke="black" points="111.49,-36.14 110.27,-47.03 108.94,-40.44 106.39,-44.74 106.39,-44.74 106.39,-44.74 108.94,-40.44 102.52,-42.45 111.49,-36.14 111.49,-36.14"/>
<text text-anchor="middle" x="121.5" y="-57.8" font-family="Times,serif" font-size="14.00">three</text>
</g>
<!-- Three&#45;&gt;One -->
<g id="edge3" class="edge">
<title>Three&#45;&gt;One</title>
<path fill="none" stroke="black" d="M134.28,-36.23C137.02,-41.72 139.61,-47.94 141,-54 151.16,-98.18 148.45,-111.28 141,-156 140.55,-158.7 139.92,-161.47 139.18,-164.21"/>
<polygon fill="black" stroke="black" points="136.14,-173.85 134.85,-162.96 137.64,-169.08 139.15,-164.31 139.15,-164.31 139.15,-164.31 137.64,-169.08 143.44,-165.66 136.14,-173.85 136.14,-173.85"/>
<text text-anchor="middle" x="180.5" y="-101.3" font-family="Times,serif" font-size="14.00">someOne</text>
</g>
<!-- OneA -->
<g id="node4" class="node">
<title>OneA</title>
<path fill="none" stroke="black" d="M93.5,-297C93.5,-297 62.5,-297 62.5,-297 56.5,-297 50.5,-291 50.5,-285 50.5,-285 50.5,-273 50.5,-273 50.5,-267 56.5,-261 62.5,-261 62.5,-261 93.5,-261 93.5,-261 99.5,-261 105.5,-267 105.5,-273 105.5,-273 105.5,-285 105.5,-285 105.5,-291 99.5,-297 93.5,-297"/>
<text text-anchor="middle" x="78" y="-275.3" font-family="Times,serif" font-size="14.00">OneA</text>
</g>
<!-- OneA&#45;&gt;One -->
<g id="edge4" class="edge">
<title>OneA&#45;&gt;One</title>
<path fill="none" stroke="black" d="M100.08,-260.81C105.61,-255.6 111.07,-249.51 115,-243 119.21,-236.02 122.19,-227.74 124.29,-219.94"/>
<polygon fill="none" stroke="black" points="127.72,-220.65 126.57,-210.12 120.9,-219.08 127.72,-220.65"/>
</g>
<!-- String -->
<g id="node5" class="node">
<title>String</title>
<path fill="none" stroke="black" d="M50,-210C50,-210 12,-210 12,-210 6,-210 0,-204 0,-198 0,-198 0,-186 0,-186 0,-180 6,-174 12,-174 12,-174 50,-174 50,-174 56,-174 62,-180 62,-186 62,-186 62,-198 62,-198 62,-204 56,-210 50,-210"/>
<text text-anchor="middle" x="31" y="-188.3" font-family="Times,serif" font-size="14.00">String</text>
</g>
<!-- OneA&#45;&gt;String -->
<g id="edge5" class="edge">
<title>OneA&#45;&gt;String</title>
<path fill="none" stroke="black" d="M50.22,-263.09C42.99,-257.77 36.09,-251.05 32,-243 28.48,-236.08 27.3,-227.9 27.25,-220.18"/>
<polygon fill="black" stroke="black" points="27.77,-210.1 31.75,-220.32 27.51,-215.09 27.26,-220.09 27.26,-220.09 27.26,-220.09 27.51,-215.09 22.76,-219.86 27.77,-210.1 27.77,-210.1"/>
<text text-anchor="middle" x="73.5" y="-231.8" font-family="Times,serif" font-size="14.00">someString</text>
</g>
<!-- OneB -->
<g id="node6" class="node">
<title>OneB</title>
<path fill="none" stroke="black" d="M203,-297C203,-297 171,-297 171,-297 165,-297 159,-291 159,-285 159,-285 159,-273 159,-273 159,-267 165,-261 171,-261 171,-261 203,-261 203,-261 209,-261 215,-267 215,-273 215,-273 215,-285 215,-285 215,-291 209,-297 203,-297"/>
<text text-anchor="middle" x="187" y="-275.3" font-family="Times,serif" font-size="14.00">OneB</text>
</g>
<!-- OneB&#45;&gt;One -->
<g id="edge6" class="edge">
<title>OneB&#45;&gt;One</title>
<path fill="none" stroke="black" d="M175.26,-260.8C167.01,-248.7 155.82,-232.3 146.51,-218.67"/>
<polygon fill="none" stroke="black" points="149.25,-216.46 140.72,-210.18 143.47,-220.41 149.25,-216.46"/>
</g>
<!-- Integer -->
<g id="node7" class="node">
<title>Integer</title>
<path fill="none" stroke="black" d="M231.5,-210C231.5,-210 186.5,-210 186.5,-210 180.5,-210 174.5,-204 174.5,-198 174.5,-198 174.5,-186 174.5,-186 174.5,-180 180.5,-174 186.5,-174 186.5,-174 231.5,-174 231.5,-174 237.5,-174 243.5,-180 243.5,-186 243.5,-186 243.5,-198 243.5,-198 243.5,-204 237.5,-210 231.5,-210"/>
<text text-anchor="middle" x="209" y="-188.3" font-family="Times,serif" font-size="14.00">Integer</text>
</g>
<!-- OneB&#45;&gt;Integer -->
<g id="edge7" class="edge">
<title>OneB&#45;&gt;Integer</title>
<path fill="none" stroke="black" d="M191.45,-260.8C194.46,-249.16 198.51,-233.55 201.95,-220.24"/>
<polygon fill="black" stroke="black" points="204.55,-210.18 206.41,-220.98 203.3,-215.02 202.05,-219.86 202.05,-219.86 202.05,-219.86 203.3,-215.02 197.69,-218.73 204.55,-210.18 204.55,-210.18"/>
<text text-anchor="middle" x="237" y="-231.8" font-family="Times,serif" font-size="14.00">someInts[]</text>
</g>
</g>
</svg>
