<?xml version="1.0" encoding="UTF-8" standalone="no"?>
<!DOCTYPE svg PUBLIC "-//W3C//DTD SVG 1.1//EN"
 "http://www.w3.org/Graphics/SVG/1.1/DTD/svg11.dtd">
<!-- Generated by graphviz version 2.43.0 (0)
 -->
<!-- Title: %3 Pages: 1 -->
<svg width="283pt" height="305pt"
 viewBox="0.00 0.00 282.50 305.00" xmlns="http://www.w3.org/2000/svg" xmlns:xlink="http://www.w3.org/1999/xlink">
<g id="graph0" class="graph" transform="scale(1 1) rotate(0) translate(4 301)">
<title>%3</title>
<polygon fill="white" stroke="transparent" points="-4,4 -4,-301 278.5,-301 278.5,4 -4,4"/>
<!-- One -->
<g id="node1" class="node">
<title>One</title>
<path fill="none" stroke="black" d="M140.5,-210C140.5,-210 110.5,-210 110.5,-210 104.5,-210 98.5,-204 98.5,-198 98.5,-198 98.5,-186 98.5,-186 98.5,-180 104.5,-174 110.5,-174 110.5,-174 140.5,-174 140.5,-174 146.5,-174 152.5,-180 152.5,-186 152.5,-186 152.5,-198 152.5,-198 152.5,-204 146.5,-210 140.5,-210"/>
<text text-anchor="middle" x="125.5" y="-188.3" font-family="Times,serif" font-size="14.00">One</text>
</g>
<!-- Two -->
<g id="node2" class="node">
<title>Two</title>
<path fill="none" stroke="black" d="M140.5,-123C140.5,-123 110.5,-123 110.5,-123 104.5,-123 98.5,-117 98.5,-111 98.5,-111 98.5,-99 98.5,-99 98.5,-93 104.5,-87 110.5,-87 110.5,-87 140.5,-87 140.5,-87 146.5,-87 152.5,-93 152.5,-99 152.5,-99 152.5,-111 152.5,-111 152.5,-117 146.5,-123 140.5,-123"/>
<text text-anchor="middle" x="125.5" y="-101.3" font-family="Times,serif" font-size="14.00">Two</text>
</g>
<!-- One&#45;&gt;Two -->
<g id="edge1" class="edge">
<title>One&#45;&gt;Two</title>
<path fill="none" stroke="black" d="M125.5,-173.8C125.5,-162.16 125.5,-146.55 125.5,-133.24"/>
<polygon fill="black" stroke="black" points="125.5,-123.18 130,-133.18 125.5,-128.18 125.5,-133.18 125.5,-133.18 125.5,-133.18 125.5,-128.18 121,-133.18 125.5,-123.18 125.5,-123.18"/>
<text text-anchor="middle" x="139" y="-144.8" font-family="Times,serif" font-size="14.00">two</text>
</g>
<!-- Three -->
<g id="node3" class="node">
<title>Three</title>
<path fill="none" stroke="black" d="M142.5,-36C142.5,-36 108.5,-36 108.5,-36 102.5,-36 96.5,-30 96.5,-24 96.5,-24 96.5,-12 96.5,-12 96.5,-6 102.5,0 108.5,0 108.5,0 142.5,0 142.5,0 148.5,0 154.5,-6 154.5,-12 154.5,-12 154.5,-24 154.5,-24 154.5,-30 148.5,-36 142.5,-36"/>
<text text-anchor="middle" x="125.5" y="-14.3" font-family="Times,serif" font-size="14.00">Three</text>
</g>
<!-- Two&#45;&gt;Three -->
<g id="edge2" class="edge">
<title>Two&#45;&gt;Three</title>
<path fill="none" stroke="black" d="M125.5,-86.8C125.5,-75.16 125.5,-59.55 125.5,-46.24"/>
<polygon fill="black" stroke="black" points="125.5,-36.18 130,-46.18 125.5,-41.18 125.5,-46.18 125.5,-46.18 125.5,-46.18 125.5,-41.18 121,-46.18 125.5,-36.18 125.5,-36.18"/>
<text text-anchor="middle" x="145" y="-57.8" font-family="Times,serif" font-size="14.00">three</text>
</g>
<!-- OneB -->
<g id="node4" class="node">
<title>OneB</title>
<path fill="none" stroke="black" d="M92.5,-297C92.5,-297 60.5,-297 60.5,-297 54.5,-297 48.5,-291 48.5,-285 48.5,-285 48.5,-273 48.5,-273 48.5,-267 54.5,-261 60.5,-261 60.5,-261 92.5,-261 92.5,-261 98.5,-261 104.5,-267 104.5,-273 104.5,-273 104.5,-285 104.5,-285 104.5,-291 98.5,-297 92.5,-297"/>
<text text-anchor="middle" x="76.5" y="-275.3" font-family="Times,serif" font-size="14.00">OneB</text>
</g>
<!-- OneB&#45;&gt;One -->
<g id="edge3" class="edge">
<title>OneB&#45;&gt;One</title>
<path fill="none" stroke="black" d="M97,-261C102.35,-255.7 107.68,-249.53 111.5,-243 115.61,-235.97 118.57,-227.67 120.67,-219.87"/>
<polygon fill="none" stroke="black" points="124.09,-220.6 122.96,-210.06 117.28,-219 124.09,-220.6"/>
</g>
<!-- Integer -->
<g id="node5" class="node">
<title>Integer</title>
<path fill="none" stroke="black" d="M57,-210C57,-210 12,-210 12,-210 6,-210 0,-204 0,-198 0,-198 0,-186 0,-186 0,-180 6,-174 12,-174 12,-174 57,-174 57,-174 63,-174 69,-180 69,-186 69,-186 69,-198 69,-198 69,-204 63,-210 57,-210"/>
<text text-anchor="middle" x="34.5" y="-188.3" font-family="Times,serif" font-size="14.00">Integer</text>
</g>
<!-- OneB&#45;&gt;Integer -->
<g id="edge4" class="edge">
<title>OneB&#45;&gt;Integer</title>
<path fill="none" stroke="black" d="M49.55,-260.71C43.91,-255.72 38.7,-249.77 35.5,-243 32.27,-236.17 31.12,-228.21 31.01,-220.67"/>
<polygon fill="black" stroke="black" points="31.43,-210.47 35.51,-220.65 31.22,-215.46 31.02,-220.46 31.02,-220.46 31.02,-220.46 31.22,-215.46 26.52,-220.27 31.43,-210.47 31.43,-210.47"/>
<text text-anchor="middle" x="73.5" y="-231.8" font-family="Times,serif" font-size="14.00">someInts[]</text>
</g>
<!-- OneA -->
<g id="node6" class="node">
<title>OneA</title>
<path fill="none" stroke="black" d="M196,-297C196,-297 165,-297 165,-297 159,-297 153,-291 153,-285 153,-285 153,-273 153,-273 153,-267 159,-261 165,-261 165,-261 196,-261 196,-261 202,-261 208,-267 208,-273 208,-273 208,-285 208,-285 208,-291 202,-297 196,-297"/>
<text text-anchor="middle" x="180.5" y="-275.3" font-family="Times,serif" font-size="14.00">OneA</text>
</g>
<!-- OneA&#45;&gt;One -->
<g id="edge5" class="edge">
<title>OneA&#45;&gt;One</title>
<path fill="none" stroke="black" d="M169.37,-260.8C161.54,-248.7 150.93,-232.3 142.11,-218.67"/>
<polygon fill="none" stroke="black" points="144.98,-216.67 136.61,-210.18 139.11,-220.47 144.98,-216.67"/>
</g>
<!-- String -->
<g id="node7" class="node">
<title>String</title>
<path fill="none" stroke="black" d="M220.5,-210C220.5,-210 182.5,-210 182.5,-210 176.5,-210 170.5,-204 170.5,-198 170.5,-198 170.5,-186 170.5,-186 170.5,-180 176.5,-174 182.5,-174 182.5,-174 220.5,-174 220.5,-174 226.5,-174 232.5,-180 232.5,-186 232.5,-186 232.5,-198 232.5,-198 232.5,-204 226.5,-210 220.5,-210"/>
<text text-anchor="middle" x="201.5" y="-188.3" font-family="Times,serif" font-size="14.00">String</text>
</g>
<!-- OneA&#45;&gt;String -->
<g id="edge6" class="edge">
<title>OneA&#45;&gt;String</title>
<path fill="none" stroke="black" d="M184.75,-260.8C187.62,-249.16 191.48,-233.55 194.77,-220.24"/>
<polygon fill="black" stroke="black" points="197.26,-210.18 199.23,-220.96 196.06,-215.03 194.86,-219.88 194.86,-219.88 194.86,-219.88 196.06,-215.03 190.49,-218.8 197.26,-210.18 197.26,-210.18"/>
<text text-anchor="middle" x="233" y="-231.8" font-family="Times,serif" font-size="14.00">someString</text>
</g>
</g>
</svg>
